# xmcd
#
# Track frame offsets:
#	150
#	17472
#	31352
#	50344
#	66252
#	79475
#	98694
#	117346
#	131007
#	147499
#	164396
#	184135
#	198755
#	218641
#	237571
#
# Disc length: 3405 seconds
#
# Revision: 1
# Processed by: cddbd v1.5.2PL0 Copyright (c) Steve Scherf et al.
# Submitted via: audiograbber 1.80
#
DISCID=d40d4b0f
DTITLE=George Thorogood and The Destroyers - 2006 - The Hard Stuff
DYEAR=2006
DGENRE=R&B
TTITLE0=Hard Stuff
TTITLE1=Hello Josephine
TTITLE2=Moving
TTITLE3=I Got My Eyes On You
TTITLE4=I Didn't Know
TTITLE5=Any Town USA
TTITLE6=Little Rain
TTITLE7=Cool It!
TTITLE8=Love Doctor
TTITLE9=Dynaflow Blues
TTITLE10=Rock Party
TTITLE11=Drifter's Escape
TTITLE12=Give Me Back My Wig
TTITLE13=Takin' Care Of Business
TTITLE14=Huckle Up Baby
EXTD=
EXTT0=
EXTT1=
EXTT2=
EXTT3=
EXTT4=
EXTT5=
EXTT6=
EXTT7=
EXTT8=
EXTT9=
EXTT10=
EXTT11=
EXTT12=
EXTT13=
EXTT14=
PLAYORDER=
